# xmcd CD database file
#
# Track frame offsets:
#	150
#	17859
#	32932
#	44908
#	58831
#	71838
#	83892
#	98898
#	111396
#	142499
#	154876
#	169212
#
# Disc length: 2528 seconds
#
# Revision: 0
# Processed by: cddbd v1.4PL0 Copyright (c) Steve Scherf et al.
# Submitted via: CDex 1.50beta10
#
DISCID=be09de0c
DTITLE=David Foster - Pegasus
DYEAR=1974
DGENRE=Jazz
TTITLE0=Fly
TTITLE1=Pegasus
TTITLE2=Treat her like a lady
TTITLE3=Down and dirty
TTITLE4=Touch the one you love
TTITLE5=Let me love you
TTITLE6=Shake that funky thing
TTITLE7=Wishin' I'd never known you
TTITLE8=Fly (extended version)
TTITLE9=Midnight flyer
TTITLE10=Ride
TTITLE11=Hallelujah
EXTD=YEAR: 1974
EXTT0=
EXTT1=
EXTT2=
EXTT3=
EXTT4=
EXTT5=
EXTT6=
EXTT7=
EXTT8=
EXTT9=
EXTT10=
EXTT11=
PLAYORDER=
